{
  "accessors": [
    {
      "bufferView": 2,
      "componentType": 5126,
      "count": 787,
      "max": [
        -0.12463799864053726,
        0.14133599400520325,
        0.11588999629020691
      ],
      "min": [
        -0.563256025314331,
        -0.8353109955787659,
        -0.6968050003051758
      ],
      "type": "VEC3"
    },
    {
      "bufferView": 2,
      "byteOffset": 9444,
      "componentType": 5126,
      "count": 787,
      "max": [
        0.9998204708099365,
        0.9987947344779968,
        0.9998213648796082
      ],
      "min": [
        -0.9998903870582581,
        -0.9987947344779968,
        -0.9890616536140442
      ],
      "type": "VEC3"
    },
    {
      "bufferView": 1,
      "componentType": 5126,
      "count": 787,
      "max": [
        0.9980000257492065,
        0.9942709803581238
      ],
      "min": [
        0.0020000000949949026,
        0.0020000000949949026
      ],
      "type": "VEC2"
    },
    {
      "bufferView": 0,
      "componentType": 5125,
      "count": 2700,
      "type": "SCALAR"
    },
    {
      "bufferView": 2,
      "byteOffset": 18888,
      "componentType": 5126,
      "count": 597,
      "max": [
        0.563256025314331,
        0.8353109955787659,
        1.0
      ],
      "min": [
        -0.44578298926353455,
        -0.7823330163955688,
        -1.0
      ],
      "type": "VEC3"
    },
    {
      "bufferView": 2,
      "byteOffset": 26052,
      "componentType": 5126,
      "count": 597,
      "max": [
        0.999484121799469,
        0.992081344127655,
        0.999229371547699
      ],
      "min": [
        -0.9999440908432007,
        -0.9995154142379761,
        -0.9636852145195007
      ],
      "type": "VEC3"
    },
    {
      "bufferView": 1,
      "byteOffset": 6296,
      "componentType": 5126,
      "count": 597,
      "max": [
        0.9812340140342712,
        0.9980000257492065
      ],
      "min": [
        0.0020000000949949026,
        0.0020000000949949026
      ],
      "type": "VEC2"
    },
    {
      "bufferView": 0,
      "byteOffset": 10800,
      "componentType": 5125,
      "count": 2370,
      "type": "SCALAR"
    }
  ],
  "asset": {
    "extras": {
      "author": "Methamar (https://sketchfab.com/Methamar)",
      "license": "CC-BY-4.0 (http://creativecommons.org/licenses/by/4.0/)",
      "source": "https://sketchfab.com/3d-models/dogs-e8d121d8a25c4e469ae4e6b0db66bbb5",
      "title": "Dogs"
    },
    "generator": "Sketchfab-12.68.0",
    "version": "2.0"
  },
  "bufferViews": [
    {
      "buffer": 0,
      "byteLength": 20280,
      "name": "floatBufferViews",
      "target": 34963
    },
    {
      "buffer": 0,
      "byteLength": 11072,
      "byteOffset": 20280,
      "byteStride": 8,
      "name": "floatBufferViews",
      "target": 34962
    },
    {
      "buffer": 0,
      "byteLength": 33216,
      "byteOffset": 31352,
      "byteStride": 12,
      "name": "floatBufferViews",
      "target": 34962
    }
  ],
  "buffers": [
    {
      "byteLength": 64568,
      "uri": "scene.bin"
    }
  ],
  "extensionsUsed": [
    "KHR_materials_unlit"
  ],
  "images": [
    {
      "uri": "textures/23___Default_baseColor.jpeg"
    },
    {
      "uri": "textures/12___Default_baseColor.jpeg"
    }
  ],
  "materials": [
    {
      "doubleSided": true,
      "extensions": {
        "KHR_materials_unlit": {}
      },
      "name": "23___Default",
      "pbrMetallicRoughness": {
        "baseColorTexture": {
          "index": 0
        },
        "metallicFactor": 0.0
      }
    },
    {
      "doubleSided": true,
      "extensions": {
        "KHR_materials_unlit": {}
      },
      "name": "12___Default",
      "pbrMetallicRoughness": {
        "baseColorTexture": {
          "index": 1
        },
        "metallicFactor": 0.0
      }
    }
  ],
  "meshes": [
    {
      "name": "defaultMaterial",
      "primitives": [
        {
          "attributes": {
            "NORMAL": 1,
            "POSITION": 0,
            "TEXCOORD_0": 2
          },
          "indices": 3,
          "material": 1,
          "mode": 4
        }
      ]
    },
    {
      "name": "defaultMaterial",
      "primitives": [
        {
          "attributes": {
            "NORMAL": 5,
            "POSITION": 4,
            "TEXCOORD_0": 6
          },
          "indices": 7,
          "material": 0,
          "mode": 4
        }
      ]
    }
  ],
  "nodes": [
    {
      "children": [
        1
      ],
      "matrix": [
        1.0,
        0.0,
        0.0,
        0.0,
        0.0,
        2.220446049250313e-16,
        -1.0,
        0.0,
        0.0,
        1.0,
        2.220446049250313e-16,
        0.0,
        0.0,
        0.0,
        0.0,
        1.0
      ],
      "name": "Sketchfab_model"
    },
    {
      "children": [
        2,
        4
      ],
      "matrix": [
        1.0,
        0.0,
        0.0,
        0.0,
        0.0,
        -4.371139006309477e-08,
        0.999999999999999,
        0.0,
        0.0,
        -0.999999999999999,
        -4.371139006309477e-08,
        0.0,
        0.0,
        0.0,
        0.0,
        1.0
      ],
      "name": "Collada visual scene group"
    },
    {
      "children": [
        3
      ],
      "name": "Box002"
    },
    {
      "mesh": 0,
      "name": "defaultMaterial"
    },
    {
      "children": [
        5
      ],
      "name": "Box001"
    },
    {
      "mesh": 1,
      "name": "defaultMaterial"
    }
  ],
  "samplers": [
    {
      "magFilter": 9729,
      "minFilter": 9987,
      "wrapS": 10497,
      "wrapT": 10497
    }
  ],
  "scene": 0,
  "scenes": [
    {
      "name": "Sketchfab_Scene",
      "nodes": [
        0
      ]
    }
  ],
  "textures": [
    {
      "sampler": 0,
      "source": 0
    },
    {
      "sampler": 0,
      "source": 1
    }
  ]
}
